<svg xmlns="http://www.w3.org/2000/svg" xmlns:xlink="http://www.w3.org/1999/xlink" width="500" zoomAndPan="magnify" viewBox="0 0 375 374.999991" height="500" preserveAspectRatio="xMidYMid meet" version="1.0"><defs><g/><clipPath id="821d77508e"><path d="M 7 31.375 L 369.765625 31.375 L 369.765625 261.882812 L 7 261.882812 Z M 7 31.375 " clip-rule="nonzero"/></clipPath></defs><g clip-path="url(#821d77508e)"><path fill="#cd6656" d="M 232.042969 261.3125 C 232.609375 261.09375 243.3125 254.480469 275.910156 234.207031 C 279.992188 231.671875 287.0625 227.25 291.621094 224.382812 C 300.429688 218.851562 327.484375 202.011719 352.730469 186.347656 C 361.132812 181.136719 368.253906 176.554688 368.554688 176.171875 C 369.40625 175.078125 369.214844 174.351562 367.671875 172.808594 C 366.402344 171.542969 365.871094 171.339844 362.976562 171.050781 C 357.363281 170.492188 357.988281 172.21875 357.371094 155.484375 C 357.078125 147.480469 356.742188 140.304688 356.625 139.539062 C 356.421875 138.210938 356.550781 138.066406 359.480469 136.359375 C 361.699219 135.0625 362.625 134.25 362.832031 133.417969 C 363.429688 131.042969 361.609375 130.269531 340.9375 124.117188 C 320.175781 117.933594 296.476562 110.597656 296.121094 110.242188 C 295.90625 110.03125 298.574219 105.972656 302.242188 100.929688 C 305.816406 96.015625 308.933594 91.613281 309.171875 91.144531 C 310.949219 87.65625 311.394531 75.277344 310.015625 67.617188 C 308.695312 60.304688 305.644531 53.304688 302.429688 50.234375 L 301.171875 49.03125 L 283.085938 47.285156 C 273.136719 46.324219 259.792969 45.050781 253.429688 44.453125 C 247.066406 43.851562 238.03125 42.96875 233.351562 42.484375 C 228.667969 42 220.617188 41.203125 215.453125 40.714844 C 196.804688 38.949219 183.636719 37.691406 174.644531 36.824219 C 169.601562 36.339844 161.351562 35.550781 156.308594 35.070312 C 142.425781 33.753906 130.273438 32.5625 124.445312 31.945312 C 121.566406 31.640625 118.5 31.382812 117.632812 31.375 C 116.195312 31.355469 114.597656 32.566406 99.742188 44.890625 C 90.773438 52.332031 81.367188 60.097656 78.839844 62.148438 C 60.972656 76.640625 37.746094 96.335938 37.144531 97.503906 C 36.335938 99.0625 36.582031 100.988281 37.71875 101.976562 C 39.164062 103.234375 40.503906 103.65625 44.691406 104.179688 L 48.933594 104.707031 L 49.300781 109.003906 C 49.503906 111.367188 49.503906 113.457031 49.300781 113.644531 C 49.097656 113.832031 41.917969 116.347656 33.339844 119.234375 C 18.046875 124.378906 17.699219 124.519531 15.207031 126.6875 C 12.199219 129.304688 9.421875 134.140625 8.261719 138.777344 C 7.148438 143.230469 7.140625 159.9375 8.25 165.089844 C 9.257812 169.753906 10.363281 172.683594 12.15625 175.414062 L 13.585938 177.59375 L 27.984375 183.078125 C 61.113281 195.691406 81.332031 203.378906 108.296875 213.621094 C 112.617188 215.261719 120.082031 218.101562 124.882812 219.933594 C 129.683594 221.765625 139.601562 225.535156 146.925781 228.308594 C 154.246094 231.078125 164.757812 235.121094 170.277344 237.289062 C 175.800781 239.457031 183.558594 242.453125 187.519531 243.949219 C 191.480469 245.441406 200.808594 248.964844 208.253906 251.777344 C 215.695312 254.585938 222.863281 257.539062 224.183594 258.335938 C 229.234375 261.382812 230.5625 261.886719 232.042969 261.3125 Z M 218.511719 250.6875 C 216.710938 249.984375 211.996094 248.167969 208.035156 246.648438 L 200.835938 243.886719 L 200.53125 242.175781 C 199.9375 238.824219 200.148438 216.691406 200.816406 212.304688 C 201.722656 206.359375 203.9375 200.082031 205.128906 200.082031 C 205.4375 200.082031 207.636719 200.847656 210.023438 201.78125 C 212.410156 202.71875 217.777344 204.773438 221.949219 206.347656 C 226.117188 207.925781 229.632812 209.3125 229.753906 209.433594 C 229.875 209.558594 229.269531 211.785156 228.40625 214.386719 C 224.378906 226.511719 222.878906 236.550781 223.730469 245.695312 C 223.992188 248.527344 224.3125 251.011719 224.441406 251.21875 C 224.566406 251.425781 224.542969 251.808594 224.382812 252.066406 C 224.023438 252.644531 222.800781 252.359375 218.511719 250.6875 Z M 228.667969 249.957031 C 228.484375 249.296875 228.347656 244.730469 228.363281 239.808594 C 228.394531 231.660156 228.5 230.445312 229.546875 226.246094 C 231.246094 219.425781 233.515625 212.792969 234.933594 210.492188 C 236.273438 208.328125 235.347656 208.910156 262.160156 193.332031 C 266.359375 190.890625 270.582031 188.382812 271.542969 187.757812 C 272.503906 187.136719 284.386719 180.15625 297.953125 172.246094 C 311.515625 164.335938 329.050781 154.105469 336.914062 149.507812 C 344.78125 144.910156 351.507812 141.148438 351.863281 141.148438 C 352.382812 141.148438 352.511719 141.824219 352.507812 144.53125 C 352.5 146.394531 352.734375 153.789062 353.023438 160.96875 L 353.546875 174.023438 L 352.484375 174.882812 C 351.898438 175.355469 342.878906 181.042969 332.433594 187.523438 C 321.992188 194.003906 308.046875 202.660156 301.445312 206.761719 C 294.84375 210.863281 283.644531 217.785156 276.5625 222.140625 C 260.679688 231.914062 243.777344 242.417969 235.96875 247.371094 C 232.730469 249.425781 229.835938 251.117188 229.539062 251.132812 C 229.246094 251.148438 228.851562 250.617188 228.667969 249.957031 Z M 262.378906 214.117188 C 279.820312 205.253906 292.078125 198.601562 300.074219 193.664062 C 308.566406 188.417969 320.820312 180.027344 320.484375 179.691406 C 320.285156 179.492188 317.296875 181.246094 304.9375 188.800781 C 294.296875 195.300781 288.835938 198.367188 270.015625 208.390625 C 256.140625 215.78125 245.769531 221.566406 244.941406 222.378906 C 243.859375 223.433594 246.511719 222.175781 262.378906 214.117188 Z M 267.179688 220.964844 C 272.746094 218.074219 286.746094 209.128906 287.925781 207.707031 C 289.082031 206.3125 287.191406 207.164062 280.976562 210.839844 C 273.828125 215.070312 264.972656 220.804688 264.5625 221.472656 C 264.128906 222.171875 265.289062 221.945312 267.179688 220.964844 Z M 310.390625 176.644531 C 311.113281 176.257812 315.039062 173.933594 319.121094 171.476562 C 323.203125 169.019531 329.097656 165.789062 332.214844 164.292969 C 335.335938 162.796875 337.675781 161.488281 337.417969 161.386719 C 336.648438 161.089844 329.472656 163.777344 325.3125 165.917969 C 319.273438 169.023438 307.136719 177.347656 308.644531 177.347656 C 308.886719 177.347656 309.671875 177.03125 310.390625 176.644531 Z M 241.207031 249.679688 C 241.207031 249.582031 241.511719 249.390625 241.886719 249.246094 C 242.273438 249.097656 242.449219 249.171875 242.296875 249.417969 C 242.039062 249.832031 241.207031 250.03125 241.207031 249.679688 Z M 246.664062 246.355469 C 246.8125 246.117188 247.167969 245.921875 247.453125 245.925781 C 247.765625 245.933594 247.710938 246.101562 247.320312 246.355469 C 246.480469 246.898438 246.328125 246.898438 246.664062 246.355469 Z M 251.246094 243.535156 C 251.246094 243.421875 251.6875 243.117188 252.230469 242.855469 C 253.171875 242.398438 253.179688 242.40625 252.363281 243.058594 C 251.472656 243.773438 251.246094 243.867188 251.246094 243.535156 Z M 189.871094 239.777344 C 182.597656 237.058594 182.980469 237.496094 183.335938 232.230469 C 184.144531 220.328125 188.558594 196.652344 190.277344 195 C 190.664062 194.625 191.84375 194.902344 195.050781 196.117188 C 197.394531 197.003906 199.492188 197.914062 199.714844 198.140625 C 199.96875 198.398438 199.570312 200.136719 198.671875 202.714844 C 196.179688 209.851562 195.730469 213.855469 195.773438 228.566406 C 195.800781 239.246094 195.703125 241.554688 195.214844 241.554688 C 194.890625 241.554688 192.484375 240.753906 189.871094 239.777344 Z M 173.550781 233.671875 C 169.425781 232.265625 169.476562 232.339844 169.820312 228.257812 C 170.441406 220.898438 174.832031 200.644531 177.066406 194.851562 C 178.960938 189.9375 179.058594 189.871094 182.371094 191.167969 C 183.859375 191.753906 185.25 192.398438 185.453125 192.601562 C 185.65625 192.808594 185.03125 196.191406 184.0625 200.128906 C 181.550781 210.355469 178.789062 227.773438 178.789062 233.417969 C 178.789062 235.023438 178.730469 235.09375 177.589844 234.871094 C 176.929688 234.742188 175.113281 234.203125 173.550781 233.671875 Z M 266.523438 233.960938 C 266.523438 233.867188 266.828125 233.671875 267.203125 233.53125 C 267.589844 233.382812 267.765625 233.453125 267.613281 233.703125 C 267.355469 234.117188 266.523438 234.316406 266.523438 233.960938 Z M 162.203125 229.410156 L 160.675781 228.65625 L 160.746094 221.574219 C 160.820312 213.867188 161.183594 210.988281 163.125 202.703125 C 165.410156 192.941406 168 186.550781 169.675781 186.550781 C 170.554688 186.550781 173.980469 187.789062 174.585938 188.328125 C 174.796875 188.511719 174.257812 190.324219 173.386719 192.351562 C 172.515625 194.375 171.210938 198.433594 170.484375 201.367188 C 168.671875 208.699219 165.839844 223.207031 165.472656 227.039062 C 165.132812 230.574219 164.902344 230.742188 162.203125 229.410156 Z M 276.5625 227.820312 C 276.5625 227.707031 277.003906 227.402344 277.546875 227.140625 C 278.488281 226.683594 278.496094 226.691406 277.679688 227.34375 C 276.789062 228.054688 276.5625 228.152344 276.5625 227.820312 Z M 150.417969 224.9375 C 147.898438 223.96875 140.628906 221.199219 134.265625 218.789062 C 127.90625 216.375 113.273438 210.808594 101.75 206.417969 C 90.226562 202.027344 76.277344 196.722656 70.757812 194.625 C 43.617188 184.316406 38.105469 182.195312 37.898438 181.988281 C 37.226562 181.316406 36.4375 174.402344 36.207031 167.105469 C 35.988281 160.296875 36.074219 158.128906 36.671875 155.101562 C 38.039062 148.207031 41.027344 140.710938 42.410156 140.710938 C 43.257812 140.710938 46.378906 142.292969 46.765625 142.921875 C 46.929688 143.183594 45.570312 144.921875 43.742188 146.804688 C 40.402344 150.234375 39.941406 151.222656 40.867188 152.953125 C 41.617188 154.359375 42.832031 154.703125 49.273438 155.351562 C 52.6875 155.695312 57.347656 156.179688 59.628906 156.425781 C 61.90625 156.675781 69.863281 157.460938 77.304688 158.175781 C 91.847656 159.570312 98.539062 160.246094 101.3125 160.609375 C 102.273438 160.734375 104.726562 161.496094 106.769531 162.304688 C 108.808594 163.109375 111.753906 164.265625 113.316406 164.871094 C 116.261719 166.011719 148.59375 178.289062 158.433594 182 C 161.523438 183.167969 164.148438 184.382812 164.273438 184.707031 C 164.398438 185.027344 163.792969 186.804688 162.933594 188.648438 C 159.496094 196.023438 156.585938 209.527344 156.210938 219.835938 C 156.046875 224.402344 155.800781 226.710938 155.480469 226.707031 C 155.21875 226.699219 152.9375 225.90625 150.417969 224.9375 Z M 281.378906 224.777344 C 281.945312 224.226562 297.917969 214.175781 319.777344 200.613281 C 355.941406 178.175781 356.210938 178.003906 356.984375 176.476562 C 357.40625 175.65625 357.945312 175 358.1875 175.023438 C 358.425781 175.050781 359.117188 175.097656 359.714844 175.132812 C 360.316406 175.171875 360.808594 175.394531 360.808594 175.628906 C 360.808594 176.105469 360.667969 176.199219 350.113281 182.726562 C 346.03125 185.253906 333.753906 192.871094 322.832031 199.660156 C 311.910156 206.449219 298.75 214.558594 293.585938 217.675781 C 288.425781 220.792969 283.519531 223.808594 282.683594 224.375 C 280.960938 225.539062 280.4375 225.703125 281.382812 224.777344 Z M 220.367188 200.699219 C 208.96875 196.351562 201.429688 193.503906 179.445312 185.246094 C 168.457031 181.121094 146.875 172.941406 143.214844 171.515625 C 141.773438 170.953125 136.316406 168.867188 131.085938 166.882812 C 125.855469 164.894531 121.730469 163.121094 121.921875 162.933594 C 122.109375 162.75 123.835938 162.777344 125.753906 162.992188 C 127.675781 163.210938 135.53125 163.988281 143.214844 164.71875 C 150.898438 165.453125 158.851562 166.242188 160.894531 166.472656 C 162.933594 166.707031 169.710938 167.386719 175.953125 167.984375 C 182.195312 168.585938 189.070312 169.269531 191.230469 169.507812 C 193.390625 169.746094 198.398438 170.25 202.359375 170.625 C 206.320312 170.996094 211.328125 171.484375 213.492188 171.707031 C 215.652344 171.929688 220.855469 172.433594 225.058594 172.828125 C 229.257812 173.222656 235.980469 173.875 239.992188 174.277344 C 244.003906 174.683594 247.664062 174.871094 248.128906 174.699219 C 248.839844 174.4375 262.398438 156.027344 286.960938 121.972656 C 290.96875 116.410156 292.566406 114.519531 293.25 114.519531 C 294.074219 114.519531 324.628906 123.734375 333.746094 126.730469 C 335.785156 127.402344 339.222656 128.484375 341.382812 129.136719 C 343.542969 129.789062 346.882812 130.8125 348.804688 131.40625 C 350.722656 132 352.785156 132.632812 353.386719 132.816406 C 353.988281 132.996094 354.476562 133.367188 354.476562 133.636719 C 354.476562 133.90625 348.386719 137.6875 340.945312 142.042969 C 326.007812 150.777344 278.53125 178.457031 251.683594 194.085938 C 242.199219 199.609375 234.054688 204.394531 233.582031 204.722656 C 233.109375 205.050781 232.667969 205.320312 232.601562 205.320312 C 232.539062 205.320312 227.03125 203.242188 220.367188 200.699219 Z M 29.644531 178.871094 C 28.292969 178.019531 28.019531 175.449219 28.367188 166.941406 C 28.6875 159.121094 29.398438 153.21875 30.796875 146.824219 C 31.730469 142.539062 33.917969 137.21875 34.746094 137.21875 C 35.011719 137.21875 35.792969 137.511719 36.488281 137.871094 L 37.75 138.523438 L 36.265625 141.734375 C 34.164062 146.28125 32.625 151.878906 31.804688 157.941406 C 31.105469 163.089844 31.273438 168.390625 32.433594 177.976562 C 32.683594 180.054688 32.667969 180.09375 31.644531 179.785156 C 31.070312 179.613281 30.171875 179.203125 29.644531 178.871094 Z M 20.019531 175.351562 C 18.398438 174.714844 16.746094 173.917969 16.355469 173.582031 C 15.207031 172.601562 13.480469 168.292969 12.632812 164.285156 C 11.6875 159.8125 11.535156 144.757812 12.394531 140.492188 C 12.929688 137.832031 14.859375 133.5 16.363281 131.574219 L 17.195312 130.511719 L 23.460938 132.898438 C 27.8125 134.554688 29.703125 135.480469 29.652344 135.925781 C 29.609375 136.277344 29.078125 137.746094 28.472656 139.191406 C 26.007812 145.078125 24.304688 155.851562 23.964844 167.667969 C 23.824219 172.53125 23.542969 176.507812 23.339844 176.507812 C 23.136719 176.507812 21.644531 175.988281 20.019531 175.351562 Z M 230.730469 168.863281 C 224.609375 168.265625 216.851562 167.488281 213.492188 167.132812 C 204.746094 166.214844 195.808594 165.316406 187.519531 164.519531 C 183.558594 164.140625 178.550781 163.636719 176.390625 163.394531 C 174.226562 163.15625 166.371094 162.378906 158.929688 161.667969 C 151.488281 160.957031 143.628906 160.179688 141.46875 159.945312 C 136.828125 159.441406 130.964844 158.859375 121.390625 157.945312 C 117.550781 157.582031 112.640625 157.085938 110.480469 156.847656 C 108.316406 156.605469 100.460938 155.828125 93.019531 155.117188 C 85.578125 154.410156 78.605469 153.726562 77.523438 153.601562 C 75.28125 153.34375 61.347656 151.957031 52.753906 151.136719 C 49.175781 150.796875 46.96875 150.402344 46.96875 150.105469 C 46.96875 149.550781 50.289062 146.269531 51.492188 145.636719 C 51.976562 145.378906 53.070312 145.351562 54.21875 145.566406 C 55.273438 145.761719 60.210938 146.320312 65.191406 146.808594 C 77.78125 148.035156 82.789062 148.539062 87.34375 149.035156 C 89.503906 149.269531 97.363281 150.042969 104.804688 150.753906 C 112.246094 151.464844 120.101562 152.242188 122.265625 152.480469 C 124.425781 152.722656 129.433594 153.226562 133.394531 153.605469 C 137.355469 153.988281 143.445312 154.589844 146.925781 154.945312 C 153.757812 155.640625 160.601562 156.3125 175.296875 157.722656 C 186.664062 158.8125 226.289062 162.730469 236.75 163.796875 C 243.832031 164.519531 244.398438 164.519531 245.933594 163.835938 C 247.199219 163.265625 249.144531 161.085938 254.519531 154.199219 C 287.222656 112.296875 294.453125 103.078125 295.238281 102.296875 C 296.199219 101.339844 292.054688 107.308594 285.074219 116.9375 C 266.433594 142.660156 247.507812 168.5625 246.714844 169.441406 C 245.9375 170.304688 245.519531 170.414062 243.835938 170.203125 C 242.75 170.066406 236.855469 169.464844 230.730469 168.863281 Z M 229.457031 158.613281 C 221.644531 157.816406 209.597656 156.605469 160.019531 151.644531 C 150.539062 150.695312 138.851562 149.515625 134.050781 149.027344 C 129.246094 148.539062 115.300781 147.148438 103.058594 145.941406 C 78.988281 143.566406 65.425781 142.214844 59.714844 141.628906 C 57.726562 141.421875 55.957031 141.117188 55.789062 140.945312 C 55.617188 140.777344 55.457031 136.1875 55.429688 130.742188 C 55.402344 125.300781 55.148438 119.375 54.859375 117.574219 C 54.574219 115.773438 54.226562 112.257812 54.085938 109.757812 L 53.832031 105.214844 L 57.492188 105.488281 C 59.507812 105.640625 65.28125 106.164062 70.320312 106.652344 C 75.363281 107.140625 84.59375 108.023438 90.835938 108.617188 C 97.078125 109.207031 106.308594 110.09375 111.351562 110.578125 C 127.4375 112.132812 138.386719 113.171875 157.402344 114.949219 C 167.605469 115.90625 181.058594 117.183594 187.300781 117.792969 C 193.542969 118.398438 203.757812 119.375 210 119.960938 C 232.828125 122.105469 240.128906 122.835938 240.652344 123.023438 C 241.066406 123.171875 241.164062 127.347656 241.089844 141.347656 L 240.988281 159.484375 L 239.496094 159.484375 C 238.675781 159.484375 234.15625 159.089844 229.457031 158.613281 Z M 198.792969 152.945312 C 198.152344 152.75 196.382812 152.460938 194.863281 152.300781 C 193.34375 152.136719 185.128906 151.140625 176.605469 150.082031 C 127.945312 144.042969 110.148438 142.117188 113.96875 143.308594 C 117.984375 144.554688 165.582031 150.667969 187.261719 152.714844 C 194.847656 153.433594 200.800781 153.550781 198.792969 152.945312 Z M 222.21875 139.894531 C 224.152344 139.394531 218.496094 139.035156 203.886719 138.734375 C 197.164062 138.597656 183.332031 138.203125 173.140625 137.859375 C 162.953125 137.519531 154.523438 137.332031 154.410156 137.445312 C 154.292969 137.5625 154.292969 137.746094 154.402344 137.855469 C 154.675781 138.132812 163.03125 138.875 172.023438 139.429688 C 181.203125 139.996094 220.429688 140.355469 222.222656 139.894531 Z M 213.871094 129.109375 C 216.960938 128.789062 220.003906 128.335938 220.636719 128.105469 C 222.203125 127.53125 218.457031 127.519531 203.015625 128.046875 C 189.515625 128.511719 185.335938 128.832031 185.335938 129.414062 C 185.335938 130.003906 207.519531 129.769531 213.871094 129.109375 Z M 119.207031 121.996094 C 120.03125 121.625 120.019531 121.589844 118.988281 121.363281 C 118.390625 121.230469 115.445312 121.011719 112.441406 120.875 C 109.441406 120.738281 102.371094 120.332031 96.730469 119.972656 C 80.074219 118.910156 76.804688 118.785156 77.523438 119.246094 C 78.335938 119.761719 86.855469 120.910156 94.109375 121.480469 C 102.1875 122.117188 118.203125 122.441406 119.207031 121.992188 Z M 245.574219 138.902344 L 245.574219 120.992188 L 255.089844 109.351562 C 260.328125 102.949219 268.132812 93.371094 272.441406 88.0625 C 276.75 82.757812 284.363281 73.378906 289.363281 67.21875 C 294.359375 61.058594 298.53125 56.023438 298.625 56.023438 C 299.054688 56.023438 300.089844 58.726562 301.054688 62.351562 C 301.976562 65.835938 302.097656 67.21875 302.097656 74.574219 C 302.097656 86.820312 302.953125 85.058594 287.675781 104.273438 C 284.804688 107.878906 274.316406 121.277344 264.367188 134.039062 C 254.417969 146.804688 246.117188 157.148438 245.925781 157.03125 C 245.730469 156.910156 245.574219 148.753906 245.574219 138.902344 Z M 257.054688 125.40625 C 261.082031 121.25 264.617188 116.265625 263.53125 116.265625 C 263.085938 116.265625 256.421875 123.675781 253.609375 127.296875 C 250.65625 131.09375 252.542969 130.0625 257.054688 125.40625 Z M 288.941406 99.132812 C 294.75 92.644531 299.667969 85.707031 298.453125 85.707031 C 297.703125 85.707031 285.292969 101.042969 285.292969 101.964844 C 285.292969 102.84375 286.347656 102.023438 288.941406 99.132812 Z M 291.964844 81.0625 C 295.503906 77.535156 298.734375 73.25 298.234375 72.746094 C 297.84375 72.355469 295.097656 75.042969 291.464844 79.378906 C 287.214844 84.449219 287.25 84.398438 287.996094 84.398438 C 288.339844 84.398438 290.125 82.898438 291.964844 81.0625 Z M 48.152344 138.472656 C 47.140625 137.960938 45.824219 137.199219 45.222656 136.78125 C 44.621094 136.359375 39.613281 134.304688 34.09375 132.210938 C 28.570312 130.117188 23.875 128.234375 23.65625 128.027344 C 23.15625 127.554688 23.15625 127.550781 37.960938 122.53125 C 44.652344 120.261719 50.25 118.527344 50.402344 118.679688 C 50.925781 119.203125 50.996094 139.402344 50.472656 139.402344 C 50.207031 139.402344 49.164062 138.984375 48.152344 138.472656 Z M 231.773438 117.585938 C 227 117.113281 215.726562 116.023438 206.726562 115.164062 C 197.722656 114.308594 185.25 113.117188 179.007812 112.523438 C 172.765625 111.925781 163.925781 111.058594 159.367188 110.589844 C 154.804688 110.121094 146.847656 109.34375 141.6875 108.855469 C 136.527344 108.371094 127.195312 107.480469 120.953125 106.878906 C 114.710938 106.277344 105.480469 105.390625 100.4375 104.914062 C 95.398438 104.433594 87.148438 103.644531 82.105469 103.15625 C 77.066406 102.671875 67.832031 101.789062 61.589844 101.199219 C 40.554688 99.210938 41.402344 99.347656 42.628906 98.191406 C 42.976562 97.863281 51.507812 90.769531 61.589844 82.425781 C 71.675781 74.085938 81.199219 66.144531 82.761719 64.789062 C 85.199219 62.667969 114.910156 38 116.835938 36.5 C 117.375 36.078125 119.382812 36.148438 126.4375 36.832031 C 131.34375 37.308594 140.464844 38.179688 146.707031 38.769531 C 152.949219 39.363281 162.179688 40.246094 167.222656 40.730469 C 172.265625 41.21875 180.515625 42.007812 185.554688 42.488281 C 190.597656 42.96875 198.847656 43.757812 203.886719 44.246094 C 216.273438 45.441406 233.746094 47.097656 245.136719 48.15625 C 250.296875 48.636719 258.546875 49.414062 263.46875 49.886719 C 268.390625 50.355469 276.933594 51.152344 282.457031 51.65625 C 293.699219 52.683594 294.460938 52.796875 294.460938 53.433594 C 294.460938 53.679688 290.742188 58.441406 286.199219 64.011719 C 240.398438 120.148438 241.8125 118.449219 241.023438 118.449219 C 240.707031 118.449219 236.546875 118.058594 231.773438 117.585938 Z M 231.773438 117.585938 " fill-opacity="1" fill-rule="nonzero"/></g><g fill="#cd6656" fill-opacity="1"><g transform="translate(6.800041, 334.98689)"><g><path d="M 37.0625 -26.75 L 37.75 -43.515625 L 36.984375 -43.515625 L 25.796875 -12.640625 L 14.625 -43.515625 L 13.84375 -43.515625 L 14.53125 -26.75 L 14.53125 0 L 3.359375 0 L 3.359375 -60.03125 L 18.578125 -60.03125 L 25.96875 -39.8125 L 26.65625 -39.8125 L 34.0625 -60.03125 L 48.25 -60.03125 L 48.25 0 L 37.0625 0 Z M 37.0625 -26.75 "/></g></g></g><g fill="#cd6656" fill-opacity="1"><g transform="translate(58.390467, 334.98689)"><g><path d="M 36.984375 -44.375 L 49.96875 -44.375 L 29.0625 7.140625 C 27.75 10.410156 26 12.90625 23.8125 14.625 C 21.632812 16.34375 18.65625 17.203125 14.875 17.203125 L 6.109375 17.203125 L 6.109375 7.3125 L 16.765625 7.3125 L 19.515625 -0.265625 L 1.640625 -44.375 L 15.3125 -44.375 L 21.765625 -25.71875 L 25.796875 -12.8125 L 26.484375 -12.8125 L 30.359375 -25.71875 Z M 36.984375 -44.375 "/></g></g></g><g fill="#cd6656" fill-opacity="1"><g transform="translate(109.980894, 334.98689)"><g><path d="M 19.265625 0 L 6.53125 0 L 6.53125 -60.03125 L 29.75 -60.03125 C 32.675781 -60.03125 35.285156 -59.582031 37.578125 -58.6875 C 39.867188 -57.800781 41.800781 -56.523438 43.375 -54.859375 C 44.957031 -53.203125 46.148438 -51.195312 46.953125 -48.84375 C 47.753906 -46.5 48.15625 -43.863281 48.15625 -40.9375 C 48.15625 -36.695312 47.238281 -33.054688 45.40625 -30.015625 C 43.570312 -26.972656 40.960938 -24.96875 37.578125 -24 L 49.359375 0 L 35.265625 0 L 25.203125 -22.28125 L 19.265625 -22.28125 Z M 26.65625 -32.25 C 29.695312 -32.25 31.804688 -32.820312 32.984375 -33.96875 C 34.160156 -35.113281 34.75 -37.003906 34.75 -39.640625 L 34.75 -42.21875 C 34.75 -44.863281 34.160156 -46.757812 32.984375 -47.90625 C 31.804688 -49.050781 29.695312 -49.625 26.65625 -49.625 L 19.265625 -49.625 L 19.265625 -32.25 Z M 26.65625 -32.25 "/></g></g></g><g fill="#cd6656" fill-opacity="1"><g transform="translate(161.57132, 334.98689)"><g><path d="M 27 1.03125 C 19.550781 1.03125 13.90625 -1.03125 10.0625 -5.15625 C 6.21875 -9.289062 4.296875 -14.910156 4.296875 -22.015625 C 4.296875 -25.628906 4.796875 -28.882812 5.796875 -31.78125 C 6.804688 -34.675781 8.242188 -37.140625 10.109375 -39.171875 C 11.972656 -41.203125 14.234375 -42.75 16.890625 -43.8125 C 19.554688 -44.875 22.554688 -45.40625 25.890625 -45.40625 C 29.210938 -45.40625 32.191406 -44.875 34.828125 -43.8125 C 37.460938 -42.75 39.695312 -41.242188 41.53125 -39.296875 C 43.375 -37.347656 44.796875 -34.984375 45.796875 -32.203125 C 46.796875 -29.421875 47.296875 -26.3125 47.296875 -22.875 L 47.296875 -19.09375 L 16.9375 -19.09375 L 16.9375 -18.3125 C 16.9375 -15.445312 17.828125 -13.140625 19.609375 -11.390625 C 21.390625 -9.640625 24 -8.765625 27.4375 -8.765625 C 30.070312 -8.765625 32.332031 -9.265625 34.21875 -10.265625 C 36.113281 -11.273438 37.75 -12.613281 39.125 -14.28125 L 46.015625 -6.796875 C 44.296875 -4.671875 41.882812 -2.832031 38.78125 -1.28125 C 35.6875 0.257812 31.757812 1.03125 27 1.03125 Z M 25.96875 -36.296875 C 23.21875 -36.296875 21.023438 -35.445312 19.390625 -33.75 C 17.753906 -32.0625 16.9375 -29.785156 16.9375 -26.921875 L 16.9375 -26.234375 L 34.828125 -26.234375 L 34.828125 -26.921875 C 34.828125 -29.835938 34.035156 -32.128906 32.453125 -33.796875 C 30.878906 -35.460938 28.71875 -36.296875 25.96875 -36.296875 Z M 25.96875 -36.296875 "/></g></g></g><g fill="#cd6656" fill-opacity="1"><g transform="translate(213.161746, 334.98689)"><g><path d="M 41.875 0 C 39.238281 0 37.117188 -0.671875 35.515625 -2.015625 C 33.910156 -3.367188 32.96875 -5.304688 32.6875 -7.828125 L 32.25 -7.828125 C 31.445312 -4.898438 29.851562 -2.691406 27.46875 -1.203125 C 25.09375 0.285156 22.1875 1.03125 18.75 1.03125 C 14.445312 1.03125 10.988281 -0.128906 8.375 -2.453125 C 5.769531 -4.773438 4.46875 -8.03125 4.46875 -12.21875 C 4.46875 -16.851562 6.160156 -20.289062 9.546875 -22.53125 C 12.929688 -24.769531 17.890625 -25.890625 24.421875 -25.890625 L 31.5625 -25.890625 L 31.5625 -28.125 C 31.5625 -30.757812 30.941406 -32.75 29.703125 -34.09375 C 28.472656 -35.445312 26.398438 -36.125 23.484375 -36.125 C 20.785156 -36.125 18.601562 -35.609375 16.9375 -34.578125 C 15.28125 -33.546875 13.847656 -32.195312 12.640625 -30.53125 L 5.671875 -36.71875 C 7.160156 -39.238281 9.492188 -41.316406 12.671875 -42.953125 C 15.859375 -44.585938 19.945312 -45.40625 24.9375 -45.40625 C 31.019531 -45.40625 35.765625 -44.015625 39.171875 -41.234375 C 42.585938 -38.453125 44.296875 -34.253906 44.296875 -28.640625 L 44.296875 -9.203125 L 49.1875 -9.203125 L 49.1875 0 Z M 23.5625 -7.3125 C 25.800781 -7.3125 27.691406 -7.851562 29.234375 -8.9375 C 30.785156 -10.03125 31.5625 -11.609375 31.5625 -13.671875 L 31.5625 -19 L 24.765625 -19 C 19.546875 -19 16.9375 -17.253906 16.9375 -13.765625 L 16.9375 -12.046875 C 16.9375 -10.492188 17.535156 -9.316406 18.734375 -8.515625 C 19.941406 -7.710938 21.550781 -7.3125 23.5625 -7.3125 Z M 23.5625 -7.3125 "/></g></g></g><g fill="#cd6656" fill-opacity="1"><g transform="translate(264.752173, 334.98689)"><g><path d="M 33.796875 -8.078125 L 33.203125 -8.078125 C 32.046875 -5.390625 30.453125 -3.195312 28.421875 -1.5 C 26.390625 0.1875 23.59375 1.03125 20.03125 1.03125 C 17.570312 1.03125 15.320312 0.570312 13.28125 -0.34375 C 11.25 -1.257812 9.5 -2.660156 8.03125 -4.546875 C 6.570312 -6.441406 5.425781 -8.851562 4.59375 -11.78125 C 3.769531 -14.707031 3.359375 -18.175781 3.359375 -22.1875 C 3.359375 -26.195312 3.769531 -29.664062 4.59375 -32.59375 C 5.425781 -35.519531 6.570312 -37.925781 8.03125 -39.8125 C 9.5 -41.707031 11.25 -43.113281 13.28125 -44.03125 C 15.320312 -44.945312 17.570312 -45.40625 20.03125 -45.40625 C 21.8125 -45.40625 23.390625 -45.175781 24.765625 -44.71875 C 26.140625 -44.257812 27.359375 -43.628906 28.421875 -42.828125 C 29.484375 -42.023438 30.398438 -41.0625 31.171875 -39.9375 C 31.953125 -38.820312 32.628906 -37.609375 33.203125 -36.296875 L 33.796875 -36.296875 L 33.796875 -63.640625 L 46.53125 -63.640625 L 46.53125 0 L 33.796875 0 Z M 25.546875 -8.859375 C 27.773438 -8.859375 29.707031 -9.398438 31.34375 -10.484375 C 32.976562 -11.578125 33.796875 -13.300781 33.796875 -15.65625 L 33.796875 -28.71875 C 33.796875 -31.070312 32.976562 -32.789062 31.34375 -33.875 C 29.707031 -34.96875 27.773438 -35.515625 25.546875 -35.515625 C 22.671875 -35.515625 20.457031 -34.640625 18.90625 -32.890625 C 17.363281 -31.140625 16.59375 -28.71875 16.59375 -25.625 L 16.59375 -18.75 C 16.59375 -15.65625 17.363281 -13.234375 18.90625 -11.484375 C 20.457031 -9.734375 22.671875 -8.859375 25.546875 -8.859375 Z M 25.546875 -8.859375 "/></g></g></g><g fill="#cd6656" fill-opacity="1"><g transform="translate(316.342599, 334.98689)"><g><path d="M 25.28125 1.03125 C 20.351562 1.03125 16.066406 0.285156 12.421875 -1.203125 C 8.785156 -2.691406 6.050781 -4.726562 4.21875 -7.3125 L 11.359375 -13.9375 C 13.078125 -12.039062 15.09375 -10.5625 17.40625 -9.5 C 19.726562 -8.4375 22.382812 -7.90625 25.375 -7.90625 C 27.894531 -7.90625 29.867188 -8.289062 31.296875 -9.0625 C 32.734375 -9.84375 33.453125 -11.035156 33.453125 -12.640625 C 33.453125 -13.898438 32.960938 -14.773438 31.984375 -15.265625 C 31.015625 -15.753906 29.671875 -16.140625 27.953125 -16.421875 L 20.8125 -17.546875 C 18.800781 -17.828125 16.9375 -18.269531 15.21875 -18.875 C 13.5 -19.476562 12.007812 -20.296875 10.75 -21.328125 C 9.488281 -22.359375 8.484375 -23.617188 7.734375 -25.109375 C 6.992188 -26.597656 6.625 -28.40625 6.625 -30.53125 C 6.625 -35.175781 8.398438 -38.816406 11.953125 -41.453125 C 15.503906 -44.085938 20.492188 -45.40625 26.921875 -45.40625 C 31.273438 -45.40625 34.984375 -44.816406 38.046875 -43.640625 C 41.117188 -42.460938 43.570312 -40.785156 45.40625 -38.609375 L 39.046875 -31.390625 C 37.722656 -32.828125 36.03125 -34.03125 33.96875 -35 C 31.90625 -35.976562 29.410156 -36.46875 26.484375 -36.46875 C 21.554688 -36.46875 19.09375 -34.972656 19.09375 -31.984375 C 19.09375 -30.671875 19.578125 -29.769531 20.546875 -29.28125 C 21.523438 -28.789062 22.875 -28.40625 24.59375 -28.125 L 31.640625 -27 C 33.648438 -26.71875 35.515625 -26.273438 37.234375 -25.671875 C 38.953125 -25.066406 40.457031 -24.25 41.75 -23.21875 C 43.039062 -22.1875 44.054688 -20.925781 44.796875 -19.4375 C 45.546875 -17.945312 45.921875 -16.140625 45.921875 -14.015625 C 45.921875 -9.367188 44.128906 -5.695312 40.546875 -3 C 36.960938 -0.3125 31.875 1.03125 25.28125 1.03125 Z M 25.28125 1.03125 "/></g></g></g></svg>