<svg xmlns="http://www.w3.org/2000/svg" xmlns:xlink="http://www.w3.org/1999/xlink" width="500" zoomAndPan="magnify" viewBox="0 0 375 374.999991" height="500" preserveAspectRatio="xMidYMid meet" version="1.0"><defs><clipPath id="874523daad"><path d="M 145 176.71875 L 168 176.71875 L 168 198.46875 L 145 198.46875 Z M 145 176.71875 " clip-rule="nonzero"/></clipPath><clipPath id="a4b99a7bd3"><path d="M 172 176.71875 L 195 176.71875 L 195 198.46875 L 172 198.46875 Z M 172 176.71875 " clip-rule="nonzero"/></clipPath><clipPath id="a316ccf9f6"><path d="M 200 176.71875 L 222 176.71875 L 222 198.46875 L 200 198.46875 Z M 200 176.71875 " clip-rule="nonzero"/></clipPath></defs><path fill="#ffffff" d="M 2.957031 186.769531 L 146.726562 186.769531 L 146.726562 188.496094 L 2.957031 188.496094 Z M 165.957031 186.769531 L 173.960938 186.769531 L 173.960938 188.496094 L 165.957031 188.496094 Z M 193.210938 186.769531 L 201.214844 186.769531 L 201.214844 188.496094 L 193.210938 188.496094 Z M 220.445312 186.769531 L 372.042969 186.769531 L 372.042969 188.496094 L 220.445312 188.496094 Z M 220.445312 186.769531 " fill-opacity="1" fill-rule="nonzero"/><path fill="#ffffff" d="M 131.011719 184.535156 C 132.699219 184.535156 134.078125 185.929688 134.078125 187.632812 C 134.078125 189.335938 132.699219 190.730469 131.011719 190.730469 C 129.320312 190.730469 127.941406 189.335938 127.941406 187.632812 C 127.941406 185.929688 129.300781 184.535156 131.011719 184.535156 Z M 131.011719 184.535156 " fill-opacity="1" fill-rule="evenodd"/><path fill="#ffffff" d="M 118.054688 181.949219 C 121.160156 181.949219 123.707031 184.496094 123.707031 187.652344 C 123.707031 190.789062 121.179688 193.355469 118.054688 193.355469 C 114.945312 193.355469 112.398438 190.808594 112.398438 187.652344 C 112.398438 184.496094 114.925781 181.949219 118.054688 181.949219 Z M 118.054688 181.949219 " fill-opacity="1" fill-rule="evenodd"/><path fill="#ffffff" d="M 243.988281 184.535156 C 242.300781 184.535156 240.921875 185.929688 240.921875 187.632812 C 240.921875 189.335938 242.300781 190.730469 243.988281 190.730469 C 245.679688 190.730469 247.058594 189.335938 247.058594 187.632812 C 247.058594 185.929688 245.699219 184.535156 243.988281 184.535156 Z M 243.988281 184.535156 " fill-opacity="1" fill-rule="evenodd"/><path fill="#ffffff" d="M 256.945312 181.949219 C 253.839844 181.949219 251.292969 184.496094 251.292969 187.652344 C 251.292969 190.789062 253.820312 193.355469 256.945312 193.355469 C 260.054688 193.355469 262.601562 190.808594 262.601562 187.652344 C 262.601562 184.496094 260.074219 181.949219 256.945312 181.949219 Z M 256.945312 181.949219 " fill-opacity="1" fill-rule="evenodd"/><g clip-path="url(#874523daad)"><path fill="#ffffff" d="M 156.945312 177.328125 L 167.160156 187.632812 L 156.339844 198.546875 L 145.519531 187.632812 L 156.339844 176.71875 Z M 164.773438 187.632812 L 156.339844 179.128906 L 147.910156 187.632812 L 156.339844 196.136719 Z M 164.773438 187.632812 " fill-opacity="1" fill-rule="nonzero"/></g><g clip-path="url(#a4b99a7bd3)"><path fill="#ffffff" d="M 184.179688 177.328125 L 194.394531 187.632812 L 183.574219 198.546875 L 172.757812 187.632812 L 183.59375 176.71875 Z M 192.007812 187.632812 L 183.574219 179.128906 L 175.144531 187.632812 L 183.574219 196.136719 Z M 192.007812 187.632812 " fill-opacity="1" fill-rule="nonzero"/></g><g clip-path="url(#a316ccf9f6)"><path fill="#ffffff" d="M 211.433594 177.328125 L 221.648438 187.632812 L 210.832031 198.546875 L 200.011719 187.632812 L 210.832031 176.71875 Z M 219.261719 187.632812 L 210.832031 179.128906 L 202.398438 187.632812 L 210.832031 196.136719 Z M 219.261719 187.632812 " fill-opacity="1" fill-rule="nonzero"/></g></svg>