<svg xmlns="http://www.w3.org/2000/svg" xmlns:xlink="http://www.w3.org/1999/xlink" width="2000" zoomAndPan="magnify" viewBox="0 0 1500 299.999988" height="400" preserveAspectRatio="xMidYMid meet" version="1.0"><defs><clipPath id="26c5a4fae8"><path d="M 186 100.429688 L 234 100.429688 L 234 179.179688 L 186 179.179688 Z M 186 100.429688 " clip-rule="nonzero"/></clipPath><clipPath id="06f2c1885d"><path d="M 237 100.429688 L 285 100.429688 L 285 179.179688 L 237 179.179688 Z M 237 100.429688 " clip-rule="nonzero"/></clipPath><clipPath id="0b38fd3128"><path d="M 289 100.429688 L 337 100.429688 L 337 179.179688 L 289 179.179688 Z M 289 100.429688 " clip-rule="nonzero"/></clipPath><clipPath id="53134d1cbc"><path d="M 1266 100.429688 L 1314 100.429688 L 1314 179.179688 L 1266 179.179688 Z M 1266 100.429688 " clip-rule="nonzero"/></clipPath><clipPath id="5d92535d72"><path d="M 1215 100.429688 L 1263 100.429688 L 1263 179.179688 L 1215 179.179688 Z M 1215 100.429688 " clip-rule="nonzero"/></clipPath><clipPath id="811781aaa4"><path d="M 1163 100.429688 L 1211 100.429688 L 1211 179.179688 L 1163 179.179688 Z M 1163 100.429688 " clip-rule="nonzero"/></clipPath></defs><path fill="#feba15" d="M 30.648438 134.503906 L 1469.351562 134.503906 L 1469.351562 145.257812 L 30.648438 145.257812 Z M 30.648438 134.503906 " fill-opacity="1" fill-rule="nonzero"/><g clip-path="url(#26c5a4fae8)"><path fill="#feba15" d="M 194.054688 100.429688 L 233.507812 139.878906 L 194.054688 179.40625 L 186.40625 171.757812 L 218.285156 139.878906 L 186.40625 108 Z M 194.054688 100.429688 " fill-opacity="1" fill-rule="nonzero"/></g><g clip-path="url(#06f2c1885d)"><path fill="#feba15" d="M 245.46875 100.429688 L 284.996094 139.878906 L 245.46875 179.40625 L 237.898438 171.757812 L 269.777344 139.878906 L 237.898438 108 Z M 245.46875 100.429688 " fill-opacity="1" fill-rule="nonzero"/></g><g clip-path="url(#0b38fd3128)"><path fill="#feba15" d="M 296.960938 100.429688 L 336.410156 139.878906 L 296.960938 179.40625 L 289.386719 171.757812 L 321.265625 139.878906 L 289.386719 108 Z M 296.960938 100.429688 " fill-opacity="1" fill-rule="nonzero"/></g><path fill="#feba15" d="M 105.160156 127.460938 C 111.519531 127.460938 116.667969 132.609375 116.667969 138.972656 C 116.667969 145.332031 111.519531 150.480469 105.160156 150.480469 C 98.796875 150.480469 93.648438 145.332031 93.648438 138.972656 C 93.648438 132.609375 98.796875 127.460938 105.160156 127.460938 Z M 105.160156 127.460938 " fill-opacity="1" fill-rule="evenodd"/><path fill="#feba15" d="M 160.8125 122.3125 C 170.050781 122.3125 177.546875 129.808594 177.546875 139.046875 C 177.546875 148.285156 170.050781 155.78125 160.8125 155.78125 C 151.574219 155.78125 144.078125 148.285156 144.078125 139.046875 C 144.15625 129.734375 151.574219 122.3125 160.8125 122.3125 Z M 160.8125 122.3125 " fill-opacity="1" fill-rule="evenodd"/><g clip-path="url(#53134d1cbc)"><path fill="#feba15" d="M 1313.59375 108 L 1281.714844 139.878906 L 1313.59375 171.757812 L 1305.945312 179.40625 L 1266.492188 139.878906 L 1305.945312 100.429688 Z M 1313.59375 108 " fill-opacity="1" fill-rule="nonzero"/></g><g clip-path="url(#5d92535d72)"><path fill="#feba15" d="M 1262.101562 108 L 1230.222656 139.878906 L 1262.101562 171.757812 L 1254.53125 179.40625 L 1215.003906 139.878906 L 1254.53125 100.429688 Z M 1262.101562 108 " fill-opacity="1" fill-rule="nonzero"/></g><g clip-path="url(#811781aaa4)"><path fill="#feba15" d="M 1210.613281 108 L 1178.734375 139.878906 L 1210.613281 171.757812 L 1203.039062 179.40625 L 1163.589844 139.878906 L 1203.039062 100.429688 Z M 1210.613281 108 " fill-opacity="1" fill-rule="nonzero"/></g><path fill="#feba15" d="M 1394.839844 127.460938 C 1388.480469 127.460938 1383.332031 132.609375 1383.332031 138.972656 C 1383.332031 145.332031 1388.480469 150.480469 1394.839844 150.480469 C 1401.203125 150.480469 1406.351562 145.332031 1406.351562 138.972656 C 1406.351562 132.609375 1401.203125 127.460938 1394.839844 127.460938 Z M 1394.839844 127.460938 " fill-opacity="1" fill-rule="evenodd"/><path fill="#feba15" d="M 1339.1875 122.3125 C 1329.949219 122.3125 1322.453125 129.808594 1322.453125 139.046875 C 1322.453125 148.285156 1329.949219 155.78125 1339.1875 155.78125 C 1348.425781 155.78125 1355.921875 148.285156 1355.921875 139.046875 C 1355.84375 129.734375 1348.425781 122.3125 1339.1875 122.3125 Z M 1339.1875 122.3125 " fill-opacity="1" fill-rule="evenodd"/></svg>